<svg height="200px" width="200px" version="1.1" id="Layer_1" xmlns="http://www.w3.org/2000/svg" xmlns:xlink="http://www.w3.org/1999/xlink" viewBox="0 0 512 512" xml:space="preserve" fill="#000000"><g id="SVGRepo_bgCarrier" stroke-width="0"></g><g id="SVGRepo_tracerCarrier" stroke-linecap="round" stroke-linejoin="round"></g><g id="SVGRepo_iconCarrier"> <g> <path style="fill:#BDC3C7;" d="M132.414,132.414h-8.828c-4.873,0-8.828-3.946-8.828-8.828s3.955-8.828,8.828-8.828h8.828 c4.873,0,8.828,3.946,8.828,8.828S137.287,132.414,132.414,132.414"></path> <path style="fill:#BDC3C7;" d="M132.414,167.724h-8.828c-4.873,0-8.828-3.946-8.828-8.828c0-4.882,3.955-8.828,8.828-8.828h8.828 c4.873,0,8.828,3.946,8.828,8.828C141.241,163.778,137.287,167.724,132.414,167.724"></path> <path style="fill:#BDC3C7;" d="M132.414,88.276h-8.828c-4.873,0-8.828-3.946-8.828-8.828c0-4.882,3.955-8.828,8.828-8.828h8.828 c4.873,0,8.828,3.946,8.828,8.828C141.241,84.33,137.287,88.276,132.414,88.276"></path> </g> <path style="fill:#485762;" d="M361.931,494.345H167.724c-19.5,0-35.31-15.81-35.31-35.31V52.966c0-19.5,15.81-35.31,35.31-35.31 h194.207c19.5,0,35.31,15.81,35.31,35.31v406.069C397.241,478.535,381.431,494.345,361.931,494.345"></path> <path style="fill:#ECF1F1;" d="M397.241,70.621H132.414V35.31c0-19.5,15.81-35.31,35.31-35.31h194.207 c19.5,0,35.31,15.81,35.31,35.31V70.621z"></path> <path style="fill:#8697CB;" d="M361.931,211.862c0,53.628-43.476,97.103-97.103,97.103s-97.103-43.476-97.103-97.103 s43.476-97.103,97.103-97.103S361.931,158.234,361.931,211.862"></path> <g> <path style="fill:#556080;" d="M264.828,123.586c-48.675,0-88.276,39.601-88.276,88.276s39.601,88.276,88.276,88.276 s88.276-39.601,88.276-88.276S313.503,123.586,264.828,123.586 M264.828,317.793c-58.412,0-105.931-47.519-105.931-105.931 s47.519-105.931,105.931-105.931s105.931,47.519,105.931,105.931S323.24,317.793,264.828,317.793"></path> <path style="fill:#556080;" d="M264.828,123.586c-16.666,0-35.31,37.747-35.31,88.276s18.644,88.276,35.31,88.276 c16.667,0,35.31-37.747,35.31-88.276S281.494,123.586,264.828,123.586 M264.828,317.793c-30.19,0-52.966-45.542-52.966-105.931 s22.775-105.931,52.966-105.931s52.966,45.542,52.966,105.931S295.018,317.793,264.828,317.793"></path> <path style="fill:#556080;" d="M361.931,220.69H167.724c-4.873,0-8.828-3.946-8.828-8.828c0-4.882,3.955-8.828,8.828-8.828h194.207 c4.873,0,8.828,3.946,8.828,8.828C370.759,216.744,366.804,220.69,361.931,220.69"></path> <path style="fill:#556080;" d="M264.828,317.793c-4.873,0-8.828-3.946-8.828-8.828V114.759c0-4.882,3.955-8.828,8.828-8.828 s8.828,3.946,8.828,8.828v194.207C273.655,313.847,269.7,317.793,264.828,317.793"></path> </g> <path style="fill:#ECF1F1;" d="M361.931,512H167.724c-19.5,0-35.31-15.81-35.31-35.31v-52.966h264.828v52.966 C397.241,496.19,381.431,512,361.931,512"></path> <g> <path style="fill:#BDC3C7;" d="M282.483,467.862c0,9.754-7.901,17.655-17.655,17.655c-9.754,0-17.655-7.901-17.655-17.655 s7.901-17.655,17.655-17.655C274.582,450.207,282.483,458.108,282.483,467.862"></path> <path style="fill:#BDC3C7;" d="M282.483,44.138h-35.31c-4.873,0-8.828-3.946-8.828-8.828s3.955-8.828,8.828-8.828h35.31 c4.873,0,8.828,3.946,8.828,8.828S287.356,44.138,282.483,44.138"></path> <path style="fill:#BDC3C7;" d="M220.69,35.31c0,4.873-3.955,8.828-8.828,8.828c-4.873,0-8.828-3.955-8.828-8.828 s3.955-8.828,8.828-8.828C216.735,26.483,220.69,30.438,220.69,35.31"></path> </g> <path style="fill:#F0C419;" d="M326.621,353.103H203.034c-4.873,0-8.828-3.946-8.828-8.828c0-4.882,3.955-8.828,8.828-8.828h123.586 c4.873,0,8.828,3.946,8.828,8.828C335.448,349.158,331.493,353.103,326.621,353.103"></path> <path style="fill:#E64C3C;" d="M361.931,388.414H167.724c-4.873,0-8.828-3.946-8.828-8.828c0-4.882,3.955-8.828,8.828-8.828h194.207 c4.873,0,8.828,3.946,8.828,8.828C370.759,384.468,366.804,388.414,361.931,388.414"></path> </g></svg>