<svg id="visual" viewBox="0 0 960 540" width="960" height="540" xmlns="http://www.w3.org/2000/svg" xmlns:xlink="http://www.w3.org/1999/xlink" version="1.1"><rect x="0" y="0" width="960" height="540" fill="#101010"></rect><path d="M0 331L74 338L148 339L222 333L295 362L369 349L443 318L517 347L591 336L665 350L738 316L812 331L886 329L960 351L960 541L886 541L812 541L738 541L665 541L591 541L517 541L443 541L369 541L295 541L222 541L148 541L74 541L0 541Z" fill="#151515"></path><path d="M0 340L74 363L148 337L222 371L295 369L369 367L443 337L517 349L591 338L665 371L738 367L812 377L886 342L960 366L960 541L886 541L812 541L738 541L665 541L591 541L517 541L443 541L369 541L295 541L222 541L148 541L74 541L0 541Z" fill="#1b1e24"></path><path d="M0 395L74 390L148 384L222 395L295 370L369 383L443 365L517 375L591 386L665 386L738 400L812 397L886 371L960 386L960 541L886 541L812 541L738 541L665 541L591 541L517 541L443 541L369 541L295 541L222 541L148 541L74 541L0 541Z" fill="#1f2634"></path><path d="M0 389L74 386L148 416L222 384L295 397L369 385L443 402L517 414L591 403L665 384L738 404L812 408L886 408L960 398L960 541L886 541L812 541L738 541L665 541L591 541L517 541L443 541L369 541L295 541L222 541L148 541L74 541L0 541Z" fill="#233045"></path><path d="M0 435L74 437L148 419L222 434L295 427L369 422L443 435L517 412L591 437L665 432L738 409L812 421L886 427L960 422L960 541L886 541L812 541L738 541L665 541L591 541L517 541L443 541L369 541L295 541L222 541L148 541L74 541L0 541Z" fill="#263956"></path><path d="M0 444L74 438L148 445L222 433L295 448L369 430L443 440L517 445L591 440L665 435L738 440L812 453L886 447L960 451L960 541L886 541L812 541L738 541L665 541L591 541L517 541L443 541L369 541L295 541L222 541L148 541L74 541L0 541Z" fill="#284368"></path><path d="M0 468L74 465L148 475L222 455L295 466L369 466L443 459L517 473L591 463L665 459L738 466L812 473L886 464L960 467L960 541L886 541L812 541L738 541L665 541L591 541L517 541L443 541L369 541L295 541L222 541L148 541L74 541L0 541Z" fill="#294d7a"></path><path d="M0 484L74 489L148 484L222 490L295 493L369 483L443 479L517 482L591 494L665 483L738 488L812 493L886 491L960 479L960 541L886 541L812 541L738 541L665 541L591 541L517 541L443 541L369 541L295 541L222 541L148 541L74 541L0 541Z" fill="#29578e"></path><path d="M0 507L74 503L148 509L222 502L295 506L369 509L443 500L517 503L591 506L665 508L738 510L812 504L886 508L960 501L960 541L886 541L812 541L738 541L665 541L591 541L517 541L443 541L369 541L295 541L222 541L148 541L74 541L0 541Z" fill="#2862a1"></path></svg>