<svg width="800" height="800" viewBox="0 0 800 800" fill="none" xmlns="http://www.w3.org/2000/svg">
<path d="M226.225 334.183C226.225 343.984 227.285 351.931 229.139 357.759C231.258 363.587 233.907 369.944 237.616 376.832C238.94 378.951 239.47 381.07 239.47 382.924C239.47 385.573 237.881 388.222 234.437 390.871L217.748 401.997C215.364 403.587 212.98 404.381 210.861 404.381C208.212 404.381 205.563 403.057 202.914 400.673C199.205 396.699 196.027 392.461 193.378 388.222C190.729 383.719 188.08 378.686 185.166 372.593C164.503 396.964 138.543 409.149 107.285 409.149C85.0332 409.149 67.2848 402.792 54.3047 390.077C41.3245 377.361 34.702 360.408 34.702 339.216C34.702 316.699 42.649 298.421 58.808 284.646C74.9669 270.871 96.4239 263.984 123.709 263.984C132.715 263.984 141.987 264.779 151.788 266.103C161.589 267.428 171.656 269.547 182.252 271.931V252.593C182.252 232.461 178.013 218.421 169.801 210.209C161.325 201.997 147.02 198.024 126.623 198.024C117.351 198.024 107.815 199.083 98.0133 201.467C88.212 203.851 78.6755 206.765 69.404 210.474C65.1656 212.328 61.9868 213.388 60.1325 213.918C58.2782 214.447 56.9537 214.712 55.8941 214.712C52.1855 214.712 50.3312 212.063 50.3312 206.5V193.52C50.3312 189.282 50.861 186.103 52.1855 184.249C53.51 182.394 55.8941 180.54 59.6027 178.686C68.8742 173.918 80 169.944 92.9802 166.765C105.96 163.322 119.735 161.732 134.305 161.732C165.828 161.732 188.874 168.885 203.709 183.189C218.278 197.494 225.695 219.216 225.695 248.355V334.183H226.225ZM118.676 374.447C127.417 374.447 136.424 372.858 145.96 369.679C155.497 366.5 163.974 360.673 171.126 352.726C175.364 347.692 178.543 342.13 180.132 335.772C181.722 329.414 182.781 321.732 182.781 312.726V301.6C175.099 299.745 166.887 298.156 158.411 297.096C149.934 296.037 141.722 295.507 133.51 295.507C115.762 295.507 102.781 298.951 94.0398 306.103C85.2981 313.255 81.0596 323.322 81.0596 336.567C81.0596 349.017 84.2384 358.288 90.861 364.646C97.2186 371.269 106.49 374.447 118.676 374.447ZM331.391 403.057C326.623 403.057 323.444 402.262 321.325 400.408C319.205 398.818 317.351 395.11 315.762 390.077L253.51 185.308C251.921 180.01 251.126 176.567 251.126 174.712C251.126 170.474 253.245 168.09 257.483 168.09H283.444C288.477 168.09 291.921 168.885 293.775 170.739C295.894 172.328 297.483 176.037 299.073 181.07L343.576 356.434L384.901 181.07C386.225 175.772 387.815 172.328 389.934 170.739C392.053 169.149 395.762 168.09 400.53 168.09H421.722C426.755 168.09 430.199 168.885 432.318 170.739C434.437 172.328 436.291 176.037 437.351 181.07L479.205 358.553L525.033 181.07C526.623 175.772 528.477 172.328 530.331 170.739C532.45 169.149 535.894 168.09 540.662 168.09H565.298C569.537 168.09 571.921 170.209 571.921 174.712C571.921 176.037 571.656 177.361 571.391 178.951C571.126 180.54 570.596 182.659 569.537 185.573L505.695 390.341C504.106 395.639 502.252 399.083 500.133 400.673C498.013 402.262 494.57 403.322 490.066 403.322H467.285C462.252 403.322 458.808 402.527 456.689 400.673C454.57 398.818 452.715 395.375 451.656 390.077L410.596 219.216L369.801 389.812C368.477 395.11 366.887 398.553 364.768 400.408C362.649 402.262 358.94 403.057 354.172 403.057H331.391ZM671.788 410.209C658.013 410.209 644.238 408.62 630.993 405.441C617.748 402.262 607.417 398.818 600.53 394.845C596.291 392.461 593.378 389.812 592.318 387.428C591.258 385.043 590.729 382.394 590.729 380.01V366.5C590.729 360.938 592.848 358.289 596.821 358.289C598.411 358.289 600 358.553 601.589 359.083C603.179 359.613 605.563 360.673 608.212 361.732C617.219 365.706 627.02 368.885 637.351 371.004C647.947 373.123 658.278 374.183 668.874 374.183C685.563 374.183 698.543 371.269 707.55 365.441C716.556 359.613 721.325 351.136 721.325 340.275C721.325 332.858 718.94 326.765 714.172 321.732C709.404 316.699 700.397 312.196 687.417 307.957L649.007 296.037C629.669 289.944 615.364 280.938 606.623 269.017C597.881 257.361 593.378 244.381 593.378 230.606C593.378 219.481 595.762 209.679 600.53 201.202C605.298 192.726 611.656 185.308 619.603 179.481C627.55 173.388 636.556 168.885 647.152 165.706C657.748 162.527 668.874 161.202 680.53 161.202C686.358 161.202 692.45 161.467 698.278 162.262C704.371 163.057 709.934 164.116 715.497 165.176C720.795 166.5 725.828 167.825 730.596 169.414C735.364 171.004 739.073 172.593 741.722 174.183C745.431 176.302 748.08 178.421 749.669 180.805C751.258 182.924 752.053 185.838 752.053 189.547V201.997C752.053 207.56 749.934 210.474 745.96 210.474C743.841 210.474 740.397 209.414 735.894 207.295C720.795 200.408 703.841 196.964 685.033 196.964C669.934 196.964 658.013 199.348 649.801 204.381C641.589 209.414 637.351 217.096 637.351 227.957C637.351 235.375 640 241.732 645.298 246.765C650.596 251.798 660.397 256.832 674.437 261.335L712.053 273.255C731.126 279.348 744.901 287.825 753.113 298.686C761.325 309.547 765.298 321.997 765.298 335.772C765.298 347.163 762.914 357.494 758.411 366.5C753.642 375.507 747.285 383.454 739.073 389.812C730.861 396.434 721.06 401.202 709.669 404.646C697.748 408.355 685.298 410.209 671.788 410.209Z" fill="white"/>
<path d="M721.854 538.951C634.702 603.322 508.08 637.494 399.205 637.494C246.623 637.494 109.139 581.07 5.29805 487.295C-2.91387 479.878 4.50335 469.812 14.3047 475.639C126.623 540.805 265.166 580.275 408.477 580.275C505.166 580.275 611.391 560.143 709.139 518.818C723.709 512.196 736.159 528.355 721.854 538.951ZM758.146 497.626C747.02 483.322 684.503 490.739 656.159 494.183C647.682 495.242 646.358 487.825 654.04 482.262C703.841 447.295 785.695 457.361 795.232 469.017C804.768 480.938 792.583 562.792 745.96 601.997C738.808 608.09 731.921 604.911 735.099 596.964C745.695 570.739 769.272 511.666 758.146 497.626Z" fill="#FF9900"/>
</svg>
