<svg width="800" height="800" viewBox="0 0 800 800" fill="none" xmlns="http://www.w3.org/2000/svg">
<path d="M669.591 418.767C669.591 417.426 669.223 416.467 668.466 415.84C667.628 415.165 666.178 414.805 664.16 414.805H661.258V422.78H664.76C667.994 422.78 669.591 421.439 669.591 418.767ZM674.115 435.395H670.128L667.585 429.784C666.294 426.972 664.913 425.566 663.405 425.566H661.258V435.395H657.973V412.006H664.556C667.483 412.006 669.68 412.64 671.189 413.962C672.467 415.099 673.106 416.557 673.106 418.372C673.106 419.982 672.584 421.337 671.534 422.46C670.511 423.598 669.041 424.365 667.163 424.762V424.863C668.466 425.17 669.77 426.601 671.035 429.183L674.115 435.407V435.395ZM681.4 423.93C681.4 419.33 679.828 415.444 676.697 412.364C673.553 409.284 669.719 407.738 665.195 407.738C660.529 407.738 656.645 409.284 653.565 412.391C650.484 415.509 648.952 419.367 648.952 423.93C648.952 428.596 650.549 432.493 653.718 435.599C656.85 438.704 660.684 440.238 665.195 440.238C669.68 440.238 673.514 438.692 676.671 435.547C679.828 432.454 681.4 428.57 681.4 423.93ZM683.61 423.829C683.61 428.993 681.834 433.325 678.269 436.814C674.703 440.329 670.332 442.079 665.105 442.079C659.84 442.079 655.47 440.354 651.992 436.967C648.517 433.53 646.791 429.21 646.791 423.97C646.791 418.845 648.555 414.538 652.082 410.999C655.609 407.472 660.006 405.708 665.259 405.708C670.409 405.708 674.729 407.395 678.23 410.756C681.821 414.206 683.61 418.552 683.61 423.829Z" fill="white"/>
<path d="M183.747 489.045H172.412V424.174C172.412 419.049 172.749 412.813 173.353 405.451H173.097C172.036 409.758 171.064 412.876 170.209 414.806L137.262 489.045H131.741L98.7291 415.343C97.7987 413.285 96.8254 409.975 95.8408 405.451H95.5955C95.9431 409.323 96.1374 415.599 96.1374 424.301V489.045H85.2098V392.441H100.163L129.8 459.805C132.036 464.879 133.481 468.738 134.183 471.371H134.654C136.583 466.093 138.116 462.131 139.28 459.523L169.556 392.441H183.741V489.045H183.747Z" fill="white"/>
<path d="M218.617 489.042H207.601V420.055H218.617V489.042ZM220.522 395.325C220.522 397.358 219.806 399.057 218.387 400.451C216.994 401.843 215.269 402.547 213.249 402.547C211.281 402.547 209.568 401.872 208.164 400.527C206.758 399.173 206.067 397.447 206.067 395.325C206.067 393.332 206.762 391.633 208.164 390.252C209.568 388.872 211.281 388.207 213.249 388.207C215.268 388.207 216.994 388.872 218.387 390.252C219.806 391.633 220.522 393.332 220.522 395.325Z" fill="white"/>
<path d="M287.462 485.851C282.171 489.097 275.857 490.707 268.559 490.707C258.669 490.707 250.706 487.423 244.623 480.866C238.718 474.502 235.741 466.285 235.741 456.214C235.741 444.915 238.974 435.766 245.492 428.813C251.972 421.848 260.688 418.372 271.653 418.372C277.647 418.372 282.963 419.547 287.615 421.873V433.21C282.465 429.593 277.021 427.803 271.18 427.803C264.151 427.803 258.439 430.257 254.003 435.152C249.389 440.162 247.051 446.859 247.051 455.217C247.051 463.243 249.186 469.594 253.429 474.285C257.684 478.949 263.346 481.288 270.49 481.288C276.522 481.288 282.171 479.307 287.462 475.359V485.851Z" fill="white"/>
<path d="M340.155 431.248C338.212 429.753 335.414 429.024 331.72 429.024C327.235 429.024 323.464 431.031 320.41 435.082C316.946 439.606 315.221 445.868 315.221 453.868V489.039H304.179V420.052H315.221V434.277H315.487C317.11 429.242 319.616 425.369 322.964 422.622C326.095 420.117 329.635 418.851 333.532 418.851C336.472 418.851 338.658 419.168 340.152 419.792V431.243L340.155 431.248Z" fill="white"/>
<path d="M401.697 454.674C401.697 445.844 399.703 439.096 395.716 434.469C391.844 430.022 386.437 427.798 379.473 427.798C372.609 427.798 367.101 430.047 362.985 434.546C358.627 439.351 356.455 446.137 356.455 454.943C356.455 463.199 358.525 469.678 362.705 474.304C366.858 478.956 372.456 481.282 379.473 481.282C386.732 481.282 392.291 478.919 396.099 474.216C399.831 469.615 401.697 463.109 401.697 454.674ZM413.02 454.286C413.02 465.277 409.915 474.108 403.729 480.728C397.518 487.374 389.16 490.697 378.655 490.697C368.303 490.697 360.059 487.374 354.015 480.728C348.097 474.325 345.12 465.864 345.12 455.347C345.12 443.346 348.48 434.093 355.228 427.524C361.465 421.428 369.81 418.361 380.265 418.361C390.552 418.361 398.592 421.568 404.38 427.921C410.119 434.311 413.02 443.104 413.02 454.286Z" fill="white"/>
<path d="M467.781 470.586C467.781 476.235 465.673 480.912 461.442 484.644C456.829 488.683 450.49 490.702 442.515 490.702C435.984 490.702 430.259 489.335 425.402 486.549V474.676C430.809 479.072 436.776 481.283 443.333 481.283C452.075 481.283 456.458 478.063 456.458 471.647C456.458 468.95 455.497 466.714 453.557 464.988C451.615 463.225 447.844 461.116 442.234 458.649C436.457 456.119 432.342 453.525 429.914 450.828C427 447.633 425.53 443.48 425.53 438.368C425.53 432.642 427.818 427.875 432.342 424.08C436.879 420.271 442.706 418.366 449.863 418.366C455.346 418.366 460.254 419.44 464.611 421.6V432.719C460.062 429.434 454.861 427.798 448.956 427.798C445.301 427.798 442.362 428.708 440.176 430.482C437.965 432.297 436.853 434.611 436.853 437.434C436.853 440.489 437.783 442.866 439.627 444.566C441.263 446.138 444.739 448.055 449.979 450.291C455.87 452.758 460.126 455.314 462.72 457.934C466.082 461.244 467.781 465.462 467.781 470.586Z" fill="white"/>
<path d="M535.264 454.674C535.264 445.844 533.271 439.096 529.271 434.469C525.411 430.022 519.992 427.798 513.04 427.798C506.177 427.798 500.669 430.047 496.528 434.546C492.183 439.351 490.022 446.137 490.022 454.943C490.022 463.199 492.093 469.678 496.234 474.304C500.439 478.956 506.037 481.282 513.04 481.282C520.311 481.282 525.858 478.919 529.667 474.216C533.398 469.615 535.264 463.109 535.264 454.674ZM546.613 454.286C546.613 465.277 543.482 474.108 537.283 480.728C531.098 487.374 522.74 490.697 512.234 490.697C501.87 490.697 493.627 487.374 487.582 480.728C481.664 474.325 478.687 465.864 478.687 455.347C478.687 443.346 482.073 434.093 488.783 427.524C495.02 421.428 503.378 418.361 513.845 418.361C524.133 418.361 532.159 421.568 537.936 427.921C543.687 434.311 546.613 443.104 546.613 454.286Z" fill="white"/>
<path d="M595.27 396.615C593.098 395.413 590.683 394.8 587.935 394.8C580.202 394.8 576.368 399.668 576.368 409.42V420.053H592.535V429.409H576.368V489.04H565.314V429.409H553.582V420.053H565.314V408.871C565.314 401.279 567.64 395.323 572.369 391.029C576.42 387.297 581.378 385.445 587.27 385.445C590.683 385.445 593.341 385.854 595.27 386.646V396.615Z" fill="white"/>
<path d="M638.853 488.347C636.245 489.843 632.769 490.584 628.475 490.584C616.436 490.584 610.417 483.798 610.417 470.225V429.419H598.583V420.05H610.417V403.219C613.945 402.107 617.612 400.893 621.485 399.641V420.05H638.853V429.419H621.485V468.347C621.485 472.973 622.241 476.283 623.823 478.2C625.421 480.181 628.028 481.153 631.709 481.153C634.456 481.153 636.833 480.416 638.853 478.929V488.347Z" fill="white"/>
<path d="M41.9199 758.29C41.9199 763.695 39.9907 768.373 36.0922 772.322C32.207 776.259 27.4907 778.24 21.9574 778.24C16.5509 778.24 11.95 776.259 8.18043 772.322C4.40979 768.373 2.53162 763.695 2.53162 758.29C2.53162 752.731 4.40979 748.04 8.18043 744.155C11.95 740.257 16.5509 738.327 21.9574 738.327C27.4907 738.327 32.207 740.283 36.0922 744.232C39.9907 748.181 41.9199 752.871 41.9199 758.29Z" fill="white"/>
<path d="M289.16 774.177H253.146L122.418 572.29C119.363 567.434 116.731 562.155 114.495 556.392H113.42C114.35 561.797 114.827 573.401 114.827 591.179V774.177H85.1382V520.888H123.671L250.487 719.594C255.536 727.479 258.986 733.127 260.737 736.527H261.442C260.267 729.242 259.654 716.82 259.654 699.286V520.888H289.163V774.177H289.16Z" fill="white"/>
<path d="M479.488 774.177H345.245V520.888H473.66V547.727H374.908V631.985H466.414V658.837H374.908V747.326H479.488V774.177Z" fill="white"/>
<path d="M683.109 547.73H610.149V774.181H580.473V547.73H507.371V520.879H683.109V547.73Z" fill="white"/>
<path d="M279.093 83.4016C307.733 170.983 318.583 327.221 402.331 327.221C408.708 327.221 415.149 326.597 421.616 325.367C345.485 307.616 336.462 153.078 290.007 73.0487C286.364 76.3591 282.747 79.8097 279.093 83.4016Z" fill="url(#paint0_linear_23_14)"/>
<path d="M290.007 73.0487C336.462 153.078 345.485 307.616 421.616 325.367C427.597 324.268 433.591 322.606 439.598 320.51C371.263 287.027 352.374 136.962 299.617 64.7161C296.422 67.3753 293.215 70.1614 290.007 73.0487Z" fill="url(#paint1_linear_23_14)"/>
<path d="M356.942 25.4546C350.577 25.4546 344.123 26.0781 337.644 27.3082C320.697 30.5032 303.483 37.8001 286.127 48.8422C290.868 53.5196 295.379 58.8741 299.622 64.7151C317.272 50.069 334.806 39.2447 352.277 32.7391C358.833 30.311 365.364 28.4839 371.92 27.2827C367.191 26.0801 362.207 25.4546 356.942 25.4546Z" fill="#14559A"/>
<path d="M492.942 289.646C499.933 284.087 506.936 277.939 513.953 271.231C484.852 184.057 474.437 25.5834 390.1 25.5834C384.068 25.5834 377.985 26.1457 371.914 27.2702C448.736 46.3771 458.576 213.515 492.942 289.646Z" fill="url(#paint2_linear_23_14)"/>
<path d="M371.917 27.2763C367.188 26.0751 362.204 25.4495 356.939 25.4495L390.103 25.571C384.071 25.571 377.987 26.1333 371.917 27.2713" fill="#3092C4"/>
<path d="M491.469 308.165C488.172 305.021 485.041 301.571 481.961 297.89C467.775 307.935 453.64 315.552 439.595 320.511C444.592 322.952 449.831 324.767 455.391 325.892C459.698 326.771 464.158 327.221 468.848 327.221C484.607 327.221 497.067 325.355 507.674 320.268C501.834 317.111 496.479 313.021 491.469 308.165Z" fill="#1969BC"/>
<path d="M352.271 32.7536C421.08 68.7422 427.061 231.714 481.964 297.89C485.645 295.296 489.287 292.548 492.929 289.646C458.564 213.515 448.736 46.3637 371.927 27.2703C365.371 28.4971 358.827 30.313 352.271 32.7536Z" fill="url(#paint3_linear_23_14)"/>
<path d="M299.617 64.7161C352.374 136.962 371.263 287.027 439.598 320.511C453.643 315.552 467.778 307.935 481.964 297.89C427.061 231.714 421.08 68.7421 352.271 32.7535C334.801 39.2457 317.267 50.07 299.617 64.7161Z" fill="url(#paint4_linear_23_14)"/>
<path d="M245.339 81.2923C237.07 99.9902 228.622 124.566 218.411 156.644C238.719 128.029 258.962 103.376 279.091 83.4016C276.318 74.8768 273.34 67.0173 270.132 60.013C261.902 66.314 253.607 73.4075 245.339 81.2923Z" fill="url(#paint5_linear_23_14)"/>
<path d="M277.465 54.6219C275.036 56.3599 272.596 58.1368 270.142 60.0151C273.349 67.0186 276.314 74.8788 279.088 83.4026C282.742 79.8242 286.372 76.3611 290.001 73.0507C286.104 66.3538 281.963 60.1682 277.465 54.6219Z" fill="#2B74B1"/>
<path d="M286.127 48.8422C283.239 50.6703 280.364 52.5994 277.463 54.6186C281.961 60.1652 286.102 66.3508 290.013 73.0609C293.221 70.1594 296.428 67.3609 299.623 64.7151C295.38 58.8751 290.869 53.5196 286.127 48.8422Z" fill="#125A9E"/>
<path d="M755.459 18.7852C716.543 168.862 635.261 289.404 567.118 319.795H566.989C565.749 320.357 564.522 320.868 563.308 321.366C563.141 321.467 562.989 321.48 562.86 321.541C562.502 321.685 562.17 321.797 561.812 321.94C561.645 322.041 561.493 322.074 561.34 322.135C560.765 322.34 560.203 322.513 559.64 322.738C559.397 322.839 559.168 322.902 558.937 322.983C558.681 323.085 558.387 323.178 558.093 323.26C557.838 323.361 557.57 323.434 557.275 323.546C557.032 323.647 556.776 323.69 556.547 323.791C556.048 323.936 555.589 324.057 555.09 324.231C554.885 324.231 554.695 324.342 554.477 324.395C554.17 324.497 553.825 324.57 553.492 324.661C553.262 324.762 553.071 324.795 552.828 324.846C552.482 324.947 552.099 325.041 551.754 325.122C551.294 325.223 550.885 325.317 550.451 325.408C553.531 326.546 556.739 327.121 560.202 327.121C624.818 327.121 689.97 211.321 797.771 18.75H755.443L755.459 18.7852Z" fill="url(#paint6_linear_23_14)"/>
<path d="M204.379 31.5449C204.419 31.5449 204.47 31.4437 204.495 31.4437C204.546 31.4437 204.624 31.4437 204.65 31.3424H204.731C205.088 31.2209 205.421 31.0766 205.778 30.9437C205.87 30.9437 205.918 30.9437 205.983 30.8424C206.075 30.8424 206.163 30.7411 206.252 30.7285C206.636 30.607 207.019 30.4627 207.377 30.3297H207.438C208.295 30.0743 209.086 29.7573 209.917 29.4609C210.034 29.4609 210.147 29.3596 210.287 29.3596C210.633 29.2482 210.991 29.1242 211.348 29.0427C211.515 28.9414 211.68 28.9414 211.834 28.8882C212.204 28.7768 212.563 28.6528 212.907 28.5713C213.062 28.5713 213.202 28.47 213.316 28.4599C214.505 28.1328 215.68 27.8259 216.869 27.5396C217.036 27.5396 217.176 27.4384 217.355 27.4282C217.699 27.327 218.019 27.2738 218.39 27.2232C218.544 27.1219 218.722 27.1219 218.901 27.0687C219.246 26.9675 219.578 26.9573 219.949 26.8738H220.192C220.908 26.7295 221.636 26.608 222.352 26.4751H222.786C223.131 26.3738 223.438 26.3637 223.783 26.3004C223.973 26.3004 224.167 26.1991 224.346 26.1991C224.665 26.1991 224.985 26.0978 225.304 26.0548C225.471 26.0548 225.636 26.0548 225.828 25.9535C226.582 25.8523 227.362 25.8118 228.154 25.7485C225.918 25.5333 223.617 25.3905 221.278 25.3905C148.508 25.3905 48.2484 160.412 3.0835 335.269H11.7868C26.2411 309.493 39.2257 285.108 51.0984 262.218C82.7292 138.367 147.154 53.9024 204.383 31.5249" fill="url(#paint7_linear_23_14)"/>
<path d="M245.34 81.2923C253.609 73.4075 261.903 66.3141 270.133 60.0141C268.255 55.8989 266.312 52.0903 264.228 48.6009C257.57 56.6779 251.487 67.3366 245.34 81.2923Z" fill="#0D82CA"/>
<path d="M251.318 32.5685C256.072 36.5558 260.327 42.0389 264.225 48.608C265.452 47.0999 266.693 45.7065 267.983 44.4029C262.577 39.3551 256.736 35.2143 250.397 32.0961C250.653 32.2378 250.908 32.3518 251.174 32.4642C251.174 32.4642 251.276 32.5654 251.319 32.5654" fill="#0D82CA"/>
<path d="M51.0951 262.233C117.449 134.368 148.889 53.4439 204.38 31.5388C147.163 53.9305 82.7259 138.394 51.0951 262.233Z" fill="url(#paint8_linear_23_14)"/>
<path d="M267.979 44.3996C266.689 45.7166 265.462 47.0968 264.221 48.6049C266.305 52.0933 268.247 55.8895 270.139 60.0171C272.593 58.1389 275.033 56.3619 277.462 54.6239C274.459 50.9176 271.289 47.4801 267.979 44.3996Z" fill="#127BCA"/>
<path d="M81.2178 334.71C80.8089 334.811 80.3999 334.811 80.0165 334.854H79.7864C79.4408 334.854 79.0829 334.955 78.7639 334.955H78.5974C77.7672 335.057 76.9487 335.057 76.1564 335.12H75.9008C143.06 333.241 173.758 299.616 188.992 250.847C200.571 213.874 210.079 182.729 218.412 156.594C190.283 196.187 162.026 243.383 133.616 296.255C119.915 321.738 99.0839 332.384 81.2173 334.66" fill="url(#paint9_linear_23_14)"/>
<path d="M81.2179 334.684C99.0845 332.408 119.916 321.775 133.616 296.279C162.026 243.421 190.296 196.211 218.4 156.618C228.624 124.527 237.059 99.9647 245.34 81.2667C189.325 134.585 133.092 223.242 81.2179 334.659" fill="url(#paint10_linear_23_14)"/>
<path d="M51.0919 262.236C39.2197 285.126 26.2351 309.511 11.7803 335.287H37.0982C40.4466 309.688 45.2008 285.278 51.0919 262.248" fill="#05A1E6"/>
<path d="M225.825 26.0189C225.62 26.0189 225.467 26.1201 225.288 26.1201C224.981 26.2214 224.661 26.2214 224.342 26.2543C224.152 26.2543 223.972 26.2543 223.78 26.3556C223.435 26.4568 223.116 26.467 222.783 26.5303C222.629 26.5303 222.477 26.5303 222.349 26.6315C221.62 26.753 220.904 26.8872 220.189 27.0097H219.946C219.576 27.111 219.242 27.1642 218.898 27.2148C218.718 27.3161 218.54 27.3161 218.373 27.3566C218.029 27.4578 217.683 27.5009 217.351 27.5616C217.171 27.6629 217.032 27.6629 216.865 27.673C215.677 27.9594 214.501 28.2662 213.312 28.5933C213.186 28.5933 213.057 28.6946 212.903 28.7148C212.546 28.8161 212.2 28.9199 211.83 29.0318C211.676 29.133 211.498 29.133 211.344 29.1735C210.986 29.2748 210.628 29.3786 210.283 29.4905C210.144 29.4905 210.028 29.5918 209.9 29.5918C209.082 29.8984 208.277 30.2052 207.434 30.4609C207.076 30.5723 206.692 30.7163 206.309 30.8492C206.154 30.9505 206.015 30.9733 205.837 31.0442C205.479 31.1556 205.121 31.2999 204.788 31.4328C204.662 31.534 204.533 31.5442 204.444 31.5973C148.953 53.5024 117.514 134.426 51.1593 262.292C45.2676 285.322 40.5006 309.732 37.165 335.33H40.7179C50.7247 335.33 53.5491 335.228 65.064 335.228H65.6519H67.3644H67.9523H68.1189H68.7068H69.0391H69.2692H69.7293H71.1607H72.592H73.7933H74.1124H76.2211C77.0134 335.127 77.8314 335.127 78.6621 335.064H78.8155C79.1611 335.064 79.5056 334.963 79.8379 334.963H80.0802C80.4503 334.963 80.8725 334.861 81.2815 334.818C133.156 223.401 189.388 134.745 245.404 81.4265C251.564 67.4708 257.634 56.812 264.28 48.7482C260.395 42.1794 256.139 36.6839 251.385 32.6956C251.385 32.6956 251.256 32.6956 251.246 32.5943C250.977 32.4829 250.722 32.3487 250.453 32.2161C250.184 32.0718 249.954 31.9604 249.674 31.8173C249.431 31.7161 249.15 31.5819 248.907 31.4492C248.575 31.348 248.306 31.2037 248.013 31.0708C247.77 30.9695 247.553 30.8657 247.309 30.7642C246.81 30.5692 246.313 30.3654 245.84 30.1508C245.622 30.0495 245.419 29.9963 245.213 29.9153C244.868 29.7913 244.472 29.629 244.114 29.4756C243.934 29.3743 243.73 29.354 243.526 29.2806C243.003 29.1059 242.491 28.9229 242.005 28.7591H241.879C241.29 28.5642 240.716 28.4219 240.115 28.2581C239.976 28.1568 239.859 28.1568 239.719 28.1366C239.195 27.9923 238.735 27.8503 238.237 27.7173C238.11 27.7173 237.993 27.6161 237.892 27.6161C236.691 27.2991 235.451 27.0437 234.199 26.8085C234.069 26.8085 233.943 26.7072 233.815 26.7072C233.279 26.6059 232.755 26.5123 232.218 26.4515C232.089 26.3503 232.013 26.3503 231.899 26.3503C231.26 26.249 230.633 26.1756 230.007 26.1047H229.675C229.164 26.0034 228.691 25.9933 228.218 25.9401C227.412 26.0414 226.646 26.0844 225.892 26.1553" fill="url(#paint11_linear_23_14)"/>
<path d="M603.452 101.868C590.684 142.765 580.345 176.504 571.348 204.263C606.378 156.056 640.885 95.4138 673.743 25.431C635.415 37.4687 614.967 65.0237 603.452 101.868Z" fill="url(#paint12_linear_23_14)"/>
<path d="M572.46 317.239C570.671 318.149 568.882 319.015 567.118 319.795C635.261 289.404 716.543 168.862 755.459 18.7852H747.573C658.163 178.498 629.408 285.416 572.46 317.239Z" fill="url(#paint13_linear_23_14)"/>
<path d="M527.963 303.821C542.788 285.724 554.865 254.963 571.352 204.264C552.334 230.386 533.191 252.841 514.033 271.155C514.033 271.256 514.033 271.256 513.932 271.319C518.111 283.844 522.699 294.898 527.926 303.819" fill="#079AE1"/>
<path d="M527.963 303.821C522.915 309.981 517.573 314.672 511.63 318.148C510.326 318.904 509.011 319.617 507.668 320.269C513.944 323.656 520.793 325.918 528.461 326.825C529.585 326.936 530.697 327.04 531.861 327.121H532.066C532.587 327.121 533.139 327.121 533.702 327.223H533.927H535.602H537.404H537.967H539.245C539.45 327.223 539.664 327.223 539.868 327.121C540.267 327.121 540.686 327.121 541.095 327.02H541.239H541.699C542.119 327.02 542.579 326.919 543.029 326.876H543.13C543.264 326.876 543.406 326.775 543.539 326.775C544.009 326.673 544.5 326.63 544.958 326.559H545.377C545.898 326.458 546.437 326.395 546.974 326.294H547.075H547.23C548.303 326.088 549.351 325.885 550.412 325.619C541.619 322.398 534.258 314.807 527.919 303.995" fill="#1969BC"/>
<path d="M402.333 327.223C408.71 327.223 415.152 326.599 421.618 325.357C427.599 324.271 433.593 322.608 439.599 320.513C444.597 322.954 449.837 324.769 455.383 325.894C459.69 326.773 464.163 327.223 468.854 327.223H402.333Z" fill="#1E5CB3"/>
<path d="M468.855 327.223C484.6 327.223 497.073 325.357 507.668 320.27C513.943 323.657 520.793 325.919 528.461 326.827C529.586 326.938 530.698 327.042 531.861 327.123H532.066C532.587 327.123 533.139 327.123 533.702 327.225H533.937H535.612H468.809L468.855 327.223Z" fill="#1E5CB3"/>
<path d="M535.651 327.223H537.466H538.029H539.295C539.51 327.223 539.713 327.223 539.918 327.121C540.317 327.121 540.736 327.121 541.158 327.02H541.292H541.763C542.182 327.02 542.642 326.919 543.08 326.878H543.191C543.325 326.878 543.457 326.777 543.59 326.777C544.06 326.676 544.551 326.635 545.008 326.562C545.162 326.562 545.284 326.562 545.447 326.461C545.969 326.359 546.509 326.306 547.046 326.205H547.147H547.301C548.375 326 549.423 325.796 550.483 325.53C553.563 326.667 556.771 327.243 560.234 327.243L535.67 327.344L535.651 327.223Z" fill="#1D60B5"/>
<path d="M513.972 271.321V271.22C506.957 277.929 499.953 284.077 492.962 289.636C489.307 292.537 485.665 295.285 481.984 297.88C485.064 301.56 488.196 305.011 491.493 308.155C496.503 313.01 501.857 317.101 507.698 320.257C509.027 319.603 510.356 318.889 511.646 318.136C517.602 314.659 522.944 309.97 527.993 303.81C522.765 294.889 518.178 283.834 513.998 271.309" fill="#175FAB"/>
<path d="M722.601 18.7852H689.449H686.152H683.034H682.912C680.765 18.8865 678.682 18.9599 676.624 19.092C675.653 21.1758 674.656 23.2594 673.697 25.3553C640.84 95.3381 606.334 155.98 571.303 204.187C554.83 254.885 542.74 285.647 527.915 303.744C534.254 314.556 541.628 322.16 550.395 325.38C550.651 325.279 550.855 325.279 551.085 325.226H551.227C551.381 325.226 551.546 325.125 551.713 325.125C552.071 325.023 552.454 324.96 552.812 324.849C553.042 324.747 553.233 324.737 553.464 324.664C553.796 324.563 554.141 324.489 554.448 324.408C554.653 324.307 554.857 324.274 555.061 324.234C555.572 324.069 556.032 323.947 556.518 323.794C556.748 323.693 556.992 323.609 557.247 323.548C557.528 323.447 557.809 323.374 558.065 323.252C558.359 323.151 558.653 323.097 558.908 322.986C559.139 322.885 559.381 322.821 559.599 322.73C560.173 322.525 560.736 322.352 561.311 322.127C561.465 322.127 561.618 321.985 561.784 321.952C562.129 321.808 562.487 321.697 562.833 321.543C562.959 321.442 563.114 321.432 563.279 321.379C564.481 320.878 565.72 320.366 566.96 319.807H567.089C568.853 319.03 570.642 318.158 572.418 317.251C629.379 285.429 658.135 178.51 747.545 18.7976H722.572L722.601 18.7852Z" fill="url(#paint14_linear_23_14)"/>
<path d="M228.154 25.8032C228.295 25.8032 228.422 25.8032 228.562 25.9044C228.907 25.9044 229.253 25.9044 229.598 26.0158H229.943C230.569 26.1171 231.196 26.1702 231.835 26.2614C231.951 26.2614 232.052 26.2614 232.154 26.3626C232.677 26.4639 233.214 26.5475 233.751 26.6285C233.867 26.6285 234.02 26.7297 234.148 26.7297C235.375 26.9753 236.627 27.2307 237.829 27.5477C237.942 27.5477 238.059 27.649 238.161 27.649C238.672 27.7705 239.132 27.9249 239.643 28.068C239.798 28.068 239.911 28.1692 240.052 28.192C240.653 28.3464 241.215 28.4989 241.803 28.693C241.829 28.693 241.864 28.693 241.932 28.7943C242.43 28.9462 242.941 29.1419 243.466 29.3156C243.671 29.4168 243.861 29.4599 244.054 29.5105C244.412 29.6649 244.808 29.8171 245.153 29.9604C245.358 29.9604 245.562 30.1021 245.778 30.1756C246.251 30.3907 246.75 30.5844 247.235 30.789C247.491 30.8902 247.708 31.0042 247.951 31.0956C248.232 31.2399 248.526 31.3718 248.833 31.474C249.088 31.5956 249.369 31.7295 249.612 31.8419C249.88 31.9862 250.135 32.0976 250.392 32.2406C256.731 35.3591 262.571 39.513 267.977 44.5485C269.971 42.4525 272.054 40.5733 274.214 38.8864C262.392 30.5026 248.999 25.7229 233.547 25.7229C231.758 25.7229 229.969 25.8242 228.154 25.9583" fill="#7DCBEC"/>
<path d="M267.979 44.3996C271.289 47.4791 274.458 50.9176 277.462 54.6239C280.363 52.6047 283.238 50.6619 286.127 48.8472C282.344 45.0642 278.356 41.6647 274.203 38.7376C272.043 40.4123 269.973 42.3037 267.979 44.3996Z" fill="#5EC5ED"/>
<path d="M228.15 25.801C229.965 25.6477 231.754 25.5838 233.544 25.5838C248.995 25.5838 262.388 30.3636 274.21 38.7345C286.683 28.8938 301.764 25.456 322.711 25.456H221.275C223.614 25.456 225.901 25.5966 228.15 25.801Z" fill="url(#paint15_linear_23_14)"/>
<path d="M322.711 25.456C301.764 25.456 286.683 28.8938 274.21 38.7345C278.351 41.6612 282.338 45.0607 286.121 48.8436C303.489 37.8016 320.691 30.4914 337.651 27.2963C344.117 26.0822 350.571 25.456 356.936 25.456H322.711Z" fill="url(#paint16_linear_23_14)"/>
<path d="M571.348 204.288C580.358 176.504 590.671 142.778 603.464 101.868C614.992 65.0105 635.402 37.4566 673.729 25.431C674.742 23.3728 675.698 21.2513 676.682 19.1677C614.2 22.9128 584.997 54.6963 570.3 101.766C544.599 183.942 529.033 237.21 514.042 271.154C533.187 252.853 552.331 230.385 571.348 204.288Z" fill="url(#paint17_linear_23_14)"/>
<path d="M663.015 305.332H655.935V327.339H653.046V305.332H645.941V302.713H663.015V305.332Z" fill="white"/>
<path d="M692.006 327.335H689.131V310.798C689.131 309.494 689.232 307.897 689.367 306.018C689.07 307.143 688.825 307.923 688.6 308.421L680.216 327.335H678.81L670.401 308.562C670.155 308.04 669.91 307.194 669.644 306.018H669.543C669.644 307.01 669.677 308.613 669.677 310.837V327.335H666.917V302.708H670.725L678.278 319.897C678.85 321.188 679.208 322.185 679.39 322.85H679.502C680.003 321.495 680.411 320.485 680.691 319.82L688.396 302.708H692.026V327.335H692.006Z" fill="white"/>
<defs>
<linearGradient id="paint0_linear_23_14" x1="7404.89" y1="-4887.38" x2="7404.89" y2="33020.1" gradientUnits="userSpaceOnUse">
<stop stop-color="#0994DC"/>
<stop offset="0.350006" stop-color="#66CEF5"/>
<stop offset="0.846161" stop-color="#127BCA"/>
<stop offset="1" stop-color="#127BCA"/>
</linearGradient>
<linearGradient id="paint1_linear_23_14" x1="7769.68" y1="-5022.2" x2="7769.68" y2="33851.4" gradientUnits="userSpaceOnUse">
<stop stop-color="#0E76BC"/>
<stop offset="0.360001" stop-color="#36AEE8"/>
<stop offset="0.846161" stop-color="#00ADEF"/>
<stop offset="1" stop-color="#00ADEF"/>
</linearGradient>
<linearGradient id="paint2_linear_23_14" x1="7473.71" y1="29315.9" x2="7473.71" y2="-1615.29" gradientUnits="userSpaceOnUse">
<stop stop-color="#1C63B7"/>
<stop offset="0.5" stop-color="#33BDF2"/>
<stop offset="1" stop-color="#33BDF2" stop-opacity="0.419608"/>
</linearGradient>
<linearGradient id="paint3_linear_23_14" x1="7385.31" y1="-5253.87" x2="7385.31" y2="35107" gradientUnits="userSpaceOnUse">
<stop stop-color="#166AB8"/>
<stop offset="0.399994" stop-color="#36AEE8"/>
<stop offset="0.846161" stop-color="#0798DD"/>
<stop offset="1" stop-color="#0798DD"/>
</linearGradient>
<linearGradient id="paint4_linear_23_14" x1="9416.68" y1="-5584.59" x2="9416.68" y2="37333.8" gradientUnits="userSpaceOnUse">
<stop stop-color="#124379"/>
<stop offset="0.389999" stop-color="#1487CB"/>
<stop offset="0.780228" stop-color="#165197"/>
<stop offset="1" stop-color="#165197"/>
</linearGradient>
<linearGradient id="paint5_linear_23_14" x1="218.429" y1="4891.61" x2="6286.43" y2="4891.61" gradientUnits="userSpaceOnUse">
<stop stop-color="#33BDF2" stop-opacity="0.698039"/>
<stop offset="1" stop-color="#1DACD8"/>
</linearGradient>
<linearGradient id="paint6_linear_23_14" x1="12918.8" y1="29217.3" x2="12918.8" y2="-913.943" gradientUnits="userSpaceOnUse">
<stop stop-color="#136AB4"/>
<stop offset="0.6" stop-color="#59CAF5" stop-opacity="0.54902"/>
<stop offset="1" stop-color="#59CAF5" stop-opacity="0.235294"/>
</linearGradient>
<linearGradient id="paint7_linear_23_14" x1="2.91225" y1="15519.3" x2="22510" y2="15519.3" gradientUnits="userSpaceOnUse">
<stop stop-color="#05A1E6" stop-opacity="0.247059"/>
<stop offset="1" stop-color="#05A1E6"/>
</linearGradient>
<linearGradient id="paint8_linear_23_14" x1="7715.07" y1="28710" x2="7715.07" y2="-2141.92" gradientUnits="userSpaceOnUse">
<stop stop-color="#318ED5"/>
<stop offset="1" stop-color="#38A7E4"/>
</linearGradient>
<linearGradient id="paint9_linear_23_14" x1="7201.26" y1="16438.2" x2="7201.26" y2="-13551.6" gradientUnits="userSpaceOnUse">
<stop stop-color="#05A1E6"/>
<stop offset="1" stop-color="#05A1E6" stop-opacity="0.54902"/>
</linearGradient>
<linearGradient id="paint10_linear_23_14" x1="8287.34" y1="25425.7" x2="8287.34" y2="83.8497" gradientUnits="userSpaceOnUse">
<stop stop-color="#1959A6"/>
<stop offset="0.5" stop-color="#05A1E6"/>
<stop offset="0.917587" stop-color="#7EC5EA"/>
<stop offset="1" stop-color="#7EC5EA"/>
</linearGradient>
<linearGradient id="paint11_linear_23_14" x1="13619.6" y1="29284.2" x2="5029.36" y2="3032.01" gradientUnits="userSpaceOnUse">
<stop stop-color="#165096"/>
<stop offset="1" stop-color="#0D82CA"/>
</linearGradient>
<linearGradient id="paint12_linear_23_14" x1="5690.54" y1="13795.1" x2="5690.54" y2="-564.523" gradientUnits="userSpaceOnUse">
<stop stop-color="#05A1E6"/>
<stop offset="0.873627" stop-color="#0495D6"/>
<stop offset="1" stop-color="#0495D6"/>
</linearGradient>
<linearGradient id="paint13_linear_23_14" x1="12858.8" y1="-1233.85" x2="-524.359" y2="28480.7" gradientUnits="userSpaceOnUse">
<stop stop-color="#38A7E4" stop-opacity="0.329412"/>
<stop offset="0.961533" stop-color="#0E88D3"/>
<stop offset="1" stop-color="#0E88D3"/>
</linearGradient>
<linearGradient id="paint14_linear_23_14" x1="11513.1" y1="-71.8984" x2="11513.1" y2="31255.3" gradientUnits="userSpaceOnUse">
<stop stop-color="#168CD4"/>
<stop offset="0.5" stop-color="#1C87CC"/>
<stop offset="1" stop-color="#154B8D"/>
</linearGradient>
<linearGradient id="paint15_linear_23_14" x1="1912.6" y1="-2690.87" x2="2048.34" y2="594.654" gradientUnits="userSpaceOnUse">
<stop stop-color="#97D6EE"/>
<stop offset="0.703293" stop-color="#55C1EA"/>
<stop offset="1" stop-color="#55C1EA"/>
</linearGradient>
<linearGradient id="paint16_linear_23_14" x1="844.203" y1="-98.5073" x2="1457.8" y2="-3578.78" gradientUnits="userSpaceOnUse">
<stop stop-color="#7ACCEC"/>
<stop offset="1" stop-color="#3FB7ED"/>
</linearGradient>
<linearGradient id="paint17_linear_23_14" x1="8645.51" y1="1622.51" x2="8645.51" y2="32263.6" gradientUnits="userSpaceOnUse">
<stop stop-color="#1DA7E7"/>
<stop offset="1" stop-color="#37ABE7" stop-opacity="0"/>
</linearGradient>
</defs>
</svg>
